<svg xmlns="http://www.w3.org/2000/svg" xmlns:xlink="http://www.w3.org/1999/xlink" width="400" zoomAndPan="magnify" viewBox="0 0 300 119.999999" height="160" preserveAspectRatio="xMidYMid meet" version="1.0"><defs><g/></defs><path stroke-linecap="butt" transform="matrix(1.06151, 0, 0, 1.06151, -4.327306, 1.540731)" fill="none" stroke-linejoin="miter" d="M 27.572727 55.701092 L 34.133991 55.701092 C 45.122176 55.701092 57.773676 53.202439 60.169291 35.248201 L 60.434244 33.419291 C 62.82986 15.446654 50.686186 13.109916 39.716401 13.109916 L 17.335242 13.109916 L 8.84571 78.001293 L 24.647206 78.001293 Z M 29.32068 42.070738 L 31.392465 26.75867 L 38.61979 26.75867 C 41.707227 26.75867 44.95658 27.752243 44.367796 33.905037 L 44.286838 34.821333 C 43.698054 40.812212 39.635443 42.070738 36.548006 42.070738 Z M 52.106628 78.001293 L 67.422376 78.001293 L 76.154782 11.442921 L 60.842713 11.442921 Z M 72.647836 33.905037 L 68.831778 63.436244 C 67.735168 71.336992 70.068225 79.156781 80.467626 79.156781 C 87.050969 79.156781 91.86428 76.577171 95.621459 72.172329 L 95.621459 78.001293 L 109.432127 78.001293 L 110.160748 65.530108 L 114.326396 33.905037 L 99.032727 33.905037 L 95.275548 62.604586 C 94.278295 63.863112 91.698684 66.015855 88.368373 66.015855 C 84.206405 66.015855 84.125447 63.031455 84.3904 60.941271 L 87.963584 33.905037 Z M 72.647836 33.905037 " stroke="#000000" stroke-width="6.239633" stroke-opacity="1" stroke-miterlimit="4"/><g fill="#ffffff" fill-opacity="1"><g transform="translate(4.977489, 84.338472)"><g><path d="M 19.957031 -23.667969 L 26.933594 -23.667969 C 38.589844 -23.667969 52.011719 -26.316406 54.574219 -45.390625 L 54.839844 -47.332031 C 57.398438 -66.40625 44.507812 -68.878906 32.851562 -68.878906 L 9.09375 -68.878906 L 0.0898438 0 L 16.867188 0 Z M 21.8125 -38.148438 L 24.019531 -54.398438 L 31.703125 -54.398438 C 34.96875 -54.398438 38.414062 -53.335938 37.796875 -46.800781 L 37.707031 -45.832031 C 37.089844 -39.472656 32.761719 -38.148438 29.496094 -38.148438 Z M 21.8125 -38.148438 "/></g></g></g><g fill="#ffffff" fill-opacity="1"><g transform="translate(51.071598, 84.338472)"><g><path d="M -0.0898438 0 L 16.160156 0 L 25.433594 -70.644531 L 9.183594 -70.644531 Z M -0.0898438 0 "/></g></g></g><g fill="#ffffff" fill-opacity="1"><g transform="translate(67.14222, 84.338472)"><g><path d="M 5.652344 -46.800781 L 1.589844 -15.453125 C 0.441406 -7.066406 2.914062 1.234375 13.953125 1.234375 C 20.929688 1.234375 26.050781 -1.5 30.023438 -6.179688 L 30.023438 0 L 44.683594 0 L 45.476562 -13.246094 L 49.894531 -46.800781 L 33.644531 -46.800781 L 29.671875 -16.335938 C 28.613281 -15.011719 25.875 -12.714844 22.339844 -12.714844 C 17.925781 -12.714844 17.839844 -15.894531 18.101562 -18.101562 L 21.898438 -46.800781 Z M 5.652344 -46.800781 "/></g></g></g><path stroke-linecap="butt" transform="matrix(1.06151, 0, 0, 1.06151, 120.318826, 1.540731)" fill="none" stroke-linejoin="miter" d="M 24.881212 33.905037 L 26.544527 21.437533 L 11.232459 21.437533 L 9.565464 33.905037 L 2.904843 33.905037 L 1.15689 47.21156 L 7.82119 47.21156 L 5.911322 61.772929 C 4.244327 74.670982 10.724632 79.156781 21.304348 79.156781 C 25.447917 79.156781 28.027527 78.406082 28.859185 78.001293 L 30.445223 65.530108 C 30.036753 65.692023 27.865612 66.015855 26.544527 66.015855 C 23.052301 66.015855 20.796522 65.103239 21.466264 60.105933 L 23.133259 47.21156 L 33.694575 47.21156 L 35.442528 33.905037 Z M 71.954507 54.380007 C 73.617822 41.805785 67.141196 32.749549 52.576148 32.749549 C 38.176695 32.749549 31.111285 42.232654 29.525247 54.380007 L 29.120458 57.526323 C 27.534421 70.100545 33.933769 79.156781 48.495137 79.156781 C 62.894591 79.156781 69.963681 69.673676 71.546038 57.526323 Z M 44.760038 54.380007 C 45.510738 48.632002 47.825395 45.890475 51.663532 45.890475 C 56.072054 45.890475 57.492496 48.793917 56.741796 54.380007 L 56.314927 57.526323 C 55.564228 63.274328 53.24957 66.015855 49.407753 66.015855 C 45.002911 66.015855 43.57879 63.112413 44.333169 57.526323 Z M 108.639441 78.001293 L 112.477578 48.470086 C 113.552109 40.569338 111.219052 32.749549 100.819651 32.749549 C 94.258388 32.749549 89.426678 35.329159 85.687898 39.737681 L 85.687898 33.905037 L 71.877229 33.905037 L 71.126529 46.398302 L 66.960881 78.001293 L 82.27663 78.001293 L 86.011729 49.301744 C 87.008983 48.043218 89.588593 45.890475 92.918904 45.890475 C 97.080872 45.890475 97.16183 48.874875 96.918956 50.968739 L 93.345772 78.001293 Z M 108.142655 78.001293 L 123.458403 78.001293 L 129.184329 33.905037 L 113.89066 33.905037 Z M 132.190808 13.109916 L 116.370913 13.109916 L 114.299129 28.911412 L 130.096945 28.911412 Z M 139.672047 54.380007 C 140.426427 48.632002 142.9214 45.890475 146.579222 45.890475 C 150.071448 45.890475 150.74119 48.551044 150.395279 51.373528 L 164.798412 51.373528 L 165.041286 49.544617 C 166.542685 38.475475 160.227975 32.749549 147.329922 32.749549 C 133.173342 32.749549 126.023294 42.232654 124.440937 54.380007 L 124.036148 57.526323 C 122.369152 70.100545 128.930416 79.156781 142.660127 79.156781 C 155.473543 79.156781 161.872891 72.680156 163.212375 63.19337 L 163.455248 61.36446 L 149.077875 61.36446 C 148.731964 63.94407 147.248964 66.015855 144.161527 66.015855 C 140.242432 66.015855 138.494479 63.112413 139.245179 57.526323 Z M 139.672047 54.380007 " stroke="#000000" stroke-width="6.239633" stroke-opacity="1" stroke-miterlimit="4"/><g fill="#ff8b04" fill-opacity="1"><g transform="translate(120.318826, 84.338472)"><g><path d="M 26.402344 -46.800781 L 28.171875 -60.046875 L 11.921875 -60.046875 L 10.15625 -46.800781 L 3.089844 -46.800781 L 1.234375 -32.671875 L 8.300781 -32.671875 L 6.269531 -17.21875 C 4.503906 -3.53125 11.390625 1.234375 22.605469 1.234375 C 27.023438 1.234375 29.757812 0.441406 30.640625 0 L 32.320312 -13.246094 C 31.878906 -13.070312 29.582031 -12.714844 28.171875 -12.714844 C 24.460938 -12.714844 22.078125 -13.6875 22.78125 -18.984375 L 24.550781 -32.671875 L 35.765625 -32.671875 L 37.617188 -46.800781 Z M 26.402344 -46.800781 "/></g></g></g><g fill="#ff8b04" fill-opacity="1"><g transform="translate(150.518154, 84.338472)"><g><path d="M 46.183594 -25.078125 C 47.949219 -38.414062 41.0625 -48.039062 25.609375 -48.039062 C 10.332031 -48.039062 2.824219 -37.972656 1.148438 -25.078125 L 0.707031 -21.722656 C -0.972656 -8.390625 5.828125 1.234375 21.28125 1.234375 C 36.558594 1.234375 44.066406 -8.832031 45.742188 -21.722656 Z M 17.308594 -25.078125 C 18.101562 -31.171875 20.574219 -34.085938 24.636719 -34.085938 C 29.316406 -34.085938 30.820312 -30.996094 30.023438 -25.078125 L 29.582031 -21.722656 C 28.789062 -15.628906 26.316406 -12.714844 22.253906 -12.714844 C 17.574219 -12.714844 16.070312 -15.808594 16.867188 -21.722656 Z M 17.308594 -25.078125 "/></g></g></g><g fill="#ff8b04" fill-opacity="1"><g transform="translate(191.314014, 84.338472)"><g><path d="M 44.332031 0 L 48.390625 -31.347656 C 49.539062 -39.738281 47.066406 -48.039062 36.027344 -48.039062 C 29.054688 -48.039062 23.929688 -45.300781 19.957031 -40.621094 L 19.957031 -46.800781 L 5.296875 -46.800781 L 4.503906 -33.558594 L 0.0898438 0 L 16.335938 0 L 20.3125 -30.464844 C 21.371094 -31.789062 24.109375 -34.085938 27.640625 -34.085938 C 32.054688 -34.085938 32.144531 -30.90625 31.878906 -28.699219 L 28.082031 0 Z M 44.332031 0 "/></g></g></g><g fill="#ff8b04" fill-opacity="1"><g transform="translate(235.200523, 84.338472)"><g><path d="M -0.0898438 0 L 16.160156 0 L 22.253906 -46.800781 L 6.003906 -46.800781 Z M 25.433594 -68.878906 L 8.652344 -68.878906 L 6.445312 -52.101562 L 23.226562 -52.101562 Z M 25.433594 -68.878906 "/></g></g></g><g fill="#ff8b04" fill-opacity="1"><g transform="translate(251.271144, 84.338472)"><g><path d="M 17.308594 -25.078125 C 18.101562 -31.171875 20.753906 -34.085938 24.636719 -34.085938 C 28.347656 -34.085938 29.054688 -31.261719 28.699219 -28.257812 L 43.976562 -28.257812 L 44.242188 -30.199219 C 45.832031 -41.945312 39.121094 -48.039062 25.433594 -48.039062 C 10.421875 -48.039062 2.824219 -37.972656 1.148438 -25.078125 L 0.707031 -21.722656 C -1.058594 -8.390625 5.917969 1.234375 20.488281 1.234375 C 34.085938 1.234375 40.886719 -5.652344 42.300781 -15.71875 L 42.5625 -17.660156 L 27.285156 -17.660156 C 26.933594 -14.925781 25.34375 -12.714844 22.078125 -12.714844 C 17.925781 -12.714844 16.070312 -15.808594 16.867188 -21.722656 Z M 17.308594 -25.078125 "/></g></g></g></svg>